ffmpeg started on 2025-06-06 at 16:38:25
Report written to "D:\Convert\FFMetrics\reports\psnr_report-6.txt"
Log level: 32
Command line:
ffmpeg -hide_banner -nostdin -i "G:\\\xc0\xed\xe8\xec\xe5\\\xce\xed\xe3\xee\xe8\xed\xe3\xe8\\!_36_\xce\xf1\xe5\xed\xfc_2024\\DreamCast\\\xcf\xeb\xee\xf5\xe0\xff \xef\xee\xe5\xe7\xe4\xea\xe0\\[DC] Acro Trip - 01_Telegram_HEVC.mkv" -i "G:\\\xc0\xed\xe8\xec\xe5\\\xce\xed\xe3\xee\xe8\xed\xe3\xe8\\!_36_\xce\xf1\xe5\xed\xfc_2024\\DreamCast\\\xcf\xeb\xee\xf5\xe0\xff \xef\xee\xe5\xe7\xe4\xea\xe0\\[DC] Acro Trip - 01_Telegram.mp4" -lavfi "[0:v]settb=AVTB,setpts=PTS-STARTPTS,format=pix_fmts=yuv420p10,fps=24000/1001,scale=1920:1080:flags=bicubic[main];[1:v]settb=AVTB,setpts=PTS-STARTPTS,format=pix_fmts=yuv420p,fps=24000/1001,scale=1920:1080:flags=bicubic[ref];[main][ref]psnr=eof_action=endall:stats_file='D\\:/Convert/FFMetrics/logs/psnr_logfile-6.txt'" -f null -
Input #0, matroska,webm, from 'G:\Аниме\Онгоинги\!_36_Осень_2024\DreamCast\Плохая поездка\[DC] Acro Trip - 01_Telegram_HEVC.mkv':
  Metadata:
    COMPATIBLE_BRANDS: isomiso2avc1mp41
    MAJOR_BRAND     : isom
    MINOR_VERSION   : 512
    ENCODER         : Lavf61.7.100
  Duration: 00:23:46.65, start: -0.021000, bitrate: 1257 kb/s
  Stream #0:0: Video: hevc (Main 10), yuv420p10le(tv, bt709, progressive), 1920x1080 [SAR 1:1 DAR 16:9], 23.98 fps, 23.98 tbr, 1k tbn (default)
      Metadata:
        HANDLER_NAME    : VideoHandler
        VENDOR_ID       : [0][0][0][0]
        ENCODER         : Lavc61.19.100 libx265
        BPS             : 1059200
        DURATION        : 00:23:46.549708333
        NUMBER_OF_FRAMES: 34203
        NUMBER_OF_BYTES : 188875160
        _STATISTICS_WRITING_APP: mkvpropedit v66.0.0 ('Josie') 64-bit
        _STATISTICS_WRITING_DATE_UTC: 2025-06-02 11:22:59
        _STATISTICS_TAGS: BPS DURATION NUMBER_OF_FRAMES NUMBER_OF_BYTES
  Stream #0:1: Audio: aac (LC), 48000 Hz, stereo, fltp (default)
      Metadata:
        HANDLER_NAME    : SoundHandler
        VENDOR_ID       : [0][0][0][0]
        ENCODER         : Lavc61.19.100 aac
        BPS             : 194216
        DURATION        : 00:23:46.645000000
        NUMBER_OF_FRAMES: 66875
        NUMBER_OF_BYTES : 34634720
        _STATISTICS_WRITING_APP: mkvpropedit v66.0.0 ('Josie') 64-bit
        _STATISTICS_WRITING_DATE_UTC: 2025-06-02 11:22:59
        _STATISTICS_TAGS: BPS DURATION NUMBER_OF_FRAMES NUMBER_OF_BYTES
Input #1, mov,mp4,m4a,3gp,3g2,mj2, from 'G:\Аниме\Онгоинги\!_36_Осень_2024\DreamCast\Плохая поездка\[DC] Acro Trip - 01_Telegram.mp4':
  Metadata:
    major_brand     : isom
    minor_version   : 512
    compatible_brands: isomiso2avc1mp41
    encoder         : Lavf61.1.100
  Duration: 00:23:46.62, start: 0.000000, bitrate: 3846 kb/s
  Stream #1:0[0x1](und): Video: h264 (High) (avc1 / 0x31637661), yuv420p(tv, bt709, progressive), 1920x1080 [SAR 1:1 DAR 16:9], 3699 kb/s, 23.98 fps, 23.98 tbr, 24k tbn (default)
      Metadata:
        handler_name    : VideoHandler
        vendor_id       : [0][0][0][0]
        encoder         : Lavc61.3.100 h264_qsv
  Stream #1:1[0x2](und): Audio: aac (HE-AACv2) (mp4a / 0x6134706D), 48000 Hz, stereo, fltp, 144 kb/s (default)
      Metadata:
        handler_name    : SoundHandler
        vendor_id       : [0][0][0][0]
Stream mapping:
  Stream #0:0 (hevc) -> settb:default
  Stream #1:0 (h264) -> settb:default
  psnr:default -> Stream #0:0 (wrapped_avframe)
  Stream #0:1 -> #0:1 (aac (native) -> pcm_s16le (native))
Output #0, null, to 'pipe:':
  Metadata:
    COMPATIBLE_BRANDS: isomiso2avc1mp41
    MAJOR_BRAND     : isom
    MINOR_VERSION   : 512
    encoder         : Lavf61.7.100
  Stream #0:0: Video: wrapped_avframe, yuv420p10le(tv, bt709, progressive), 1920x1080 [SAR 1:1 DAR 16:9], q=2-31, 200 kb/s, 23.98 fps, 23.98 tbn
      Metadata:
        encoder         : Lavc61.19.100 wrapped_avframe
  Stream #0:1: Audio: pcm_s16le, 48000 Hz, stereo, s16, 1536 kb/s (default)
      Metadata:
        HANDLER_NAME    : SoundHandler
        VENDOR_ID       : [0][0][0][0]
        _STATISTICS_TAGS: BPS DURATION NUMBER_OF_FRAMES NUMBER_OF_BYTES
        BPS             : 194216
        DURATION        : 00:23:46.645000000
        NUMBER_OF_FRAMES: 66875
        NUMBER_OF_BYTES : 34634720
        _STATISTICS_WRITING_APP: mkvpropedit v66.0.0 ('Josie') 64-bit
        _STATISTICS_WRITING_DATE_UTC: 2025-06-02 11:22:59
        encoder         : Lavc61.19.100 pcm_s16le
frame=  171 fps=0.0 q=-0.0 size=N/A time=00:00:07.13 bitrate=N/A speed=  14x    frame=  400 fps=388 q=-0.0 size=N/A time=00:00:16.68 bitrate=N/A speed=16.2x    frame=  642 fps=417 q=-0.0 size=N/A time=00:00:26.77 bitrate=N/A speed=17.4x    frame=  891 fps=433 q=-0.0 size=N/A time=00:00:37.16 bitrate=N/A speed=  18x    frame= 1140 fps=442 q=-0.0 size=N/A time=00:00:47.54 bitrate=N/A speed=18.5x    frame= 1419 fps=458 q=-0.0 size=N/A time=00:00:59.18 bitrate=N/A speed=19.1x    frame= 1671 fps=462 q=-0.0 size=N/A time=00:01:09.69 bitrate=N/A speed=19.3x    frame= 1945 fps=470 q=-0.0 size=N/A time=00:01:21.12 bitrate=N/A speed=19.6x    frame= 2187 fps=471 q=-0.0 size=N/A time=00:01:31.21 bitrate=N/A speed=19.6x    frame= 2442 fps=473 q=-0.0 size=N/A time=00:01:41.85 bitrate=N/A speed=19.7x    frame= 2692 fps=473 q=-0.0 size=N/A time=00:01:52.27 bitrate=N/A speed=19.7x    frame= 2956 fps=477 q=-0.0 size=N/A time=00:02:03.28 bitrate=N/A speed=19.9x    frame= 3206 fps=477 q=-0.0 size=N/A time=00:02:13.71 bitrate=N/A speed=19.9x    frame= 3449 fps=478 q=-0.0 size=N/A time=00:02:23.85 bitrate=N/A speed=19.9x    frame= 3730 fps=482 q=-0.0 size=N/A time=00:02:35.57 bitrate=N/A speed=20.1x    frame= 3990 fps=483 q=-0.0 size=N/A time=00:02:46.41 bitrate=N/A speed=20.1x    frame= 4248 fps=484 q=-0.0 size=N/A time=00:02:57.17 bitrate=N/A speed=20.2x    frame= 4521 fps=486 q=-0.0 size=N/A time=00:03:08.56 bitrate=N/A speed=20.3x    frame= 4757 fps=485 q=-0.0 size=N/A time=00:03:18.40 bitrate=N/A speed=20.2x    frame= 5000 fps=484 q=-0.0 size=N/A time=00:03:28.54 bitrate=N/A speed=20.2x    frame= 5263 fps=486 q=-0.0 size=N/A time=00:03:39.51 bitrate=N/A speed=20.3x    frame= 5541 fps=488 q=-0.0 size=N/A time=00:03:51.10 bitrate=N/A speed=20.3x    frame= 5819 fps=490 q=-0.0 size=N/A time=00:04:02.70 bitrate=N/A speed=20.4x    frame= 6077 fps=491 q=-0.0 size=N/A time=00:04:13.46 bitrate=N/A speed=20.5x    frame= 6335 fps=491 q=-0.0 size=N/A time=00:04:24.22 bitrate=N/A speed=20.5x    frame= 6605 fps=492 q=-0.0 size=N/A time=00:04:35.48 bitrate=N/A speed=20.5x    frame= 6867 fps=493 q=-0.0 size=N/A time=00:04:46.41 bitrate=N/A speed=20.6x    frame= 7148 fps=495 q=-0.0 size=N/A time=00:04:58.13 bitrate=N/A speed=20.6x    frame= 7415 fps=495 q=-0.0 size=N/A time=00:05:09.26 bitrate=N/A speed=20.7x    frame= 7650 fps=494 q=-0.0 size=N/A time=00:05:19.06 bitrate=N/A speed=20.6x    frame= 7932 fps=496 q=-0.0 size=N/A time=00:05:30.83 bitrate=N/A speed=20.7x    frame= 8156 fps=494 q=-0.0 size=N/A time=00:05:40.17 bitrate=N/A speed=20.6x    frame= 8385 fps=493 q=-0.0 size=N/A time=00:05:49.72 bitrate=N/A speed=20.5x    frame= 8636 fps=492 q=-0.0 size=N/A time=00:06:00.19 bitrate=N/A speed=20.5x    frame= 8900 fps=493 q=-0.0 size=N/A time=00:06:11.20 bitrate=N/A speed=20.6x    frame= 9164 fps=494 q=-0.0 size=N/A time=00:06:22.21 bitrate=N/A speed=20.6x    frame= 9448 fps=495 q=-0.0 size=N/A time=00:06:34.06 bitrate=N/A speed=20.6x    frame= 9702 fps=495 q=-0.0 size=N/A time=00:06:44.65 bitrate=N/A speed=20.6x    frame= 9938 fps=494 q=-0.0 size=N/A time=00:06:54.49 bitrate=N/A speed=20.6x    frame=10198 fps=494 q=-0.0 size=N/A time=00:07:05.34 bitrate=N/A speed=20.6x    frame=10442 fps=494 q=-0.0 size=N/A time=00:07:15.51 bitrate=N/A speed=20.6x    frame=10691 fps=493 q=-0.0 size=N/A time=00:07:25.90 bitrate=N/A speed=20.6x    frame=10931 fps=493 q=-0.0 size=N/A time=00:07:35.91 bitrate=N/A speed=20.6x    frame=11170 fps=492 q=-0.0 size=N/A time=00:07:45.88 bitrate=N/A speed=20.5x    frame=11429 fps=492 q=-0.0 size=N/A time=00:07:56.68 bitrate=N/A speed=20.5x    frame=11690 fps=493 q=-0.0 size=N/A time=00:08:07.57 bitrate=N/A speed=20.5x    frame=11944 fps=493 q=-0.0 size=N/A time=00:08:18.16 bitrate=N/A speed=20.6x    frame=12186 fps=492 q=-0.0 size=N/A time=00:08:28.25 bitrate=N/A speed=20.5x    frame=12451 fps=493 q=-0.0 size=N/A time=00:08:39.31 bitrate=N/A speed=20.5x    frame=12711 fps=493 q=-0.0 size=N/A time=00:08:50.15 bitrate=N/A speed=20.6x    frame=12954 fps=492 q=-0.0 size=N/A time=00:09:00.28 bitrate=N/A speed=20.5x    frame=13218 fps=493 q=-0.0 size=N/A time=00:09:11.30 bitrate=N/A speed=20.5x    frame=13461 fps=492 q=-0.0 size=N/A time=00:09:21.43 bitrate=N/A speed=20.5x    frame=13703 fps=492 q=-0.0 size=N/A time=00:09:31.52 bitrate=N/A speed=20.5x    frame=13927 fps=491 q=-0.0 size=N/A time=00:09:40.87 bitrate=N/A speed=20.5x    frame=14118 fps=489 q=-0.0 size=N/A time=00:09:48.83 bitrate=N/A speed=20.4x    frame=14354 fps=488 q=-0.0 size=N/A time=00:09:58.68 bitrate=N/A speed=20.4x    frame=14537 fps=486 q=-0.0 size=N/A time=00:10:06.31 bitrate=N/A speed=20.3x    frame=14751 fps=485 q=-0.0 size=N/A time=00:10:15.23 bitrate=N/A speed=20.2x    frame=14981 fps=484 q=-0.0 size=N/A time=00:10:24.83 bitrate=N/A speed=20.2x    frame=15204 fps=483 q=-0.0 size=N/A time=00:10:34.13 bitrate=N/A speed=20.2x    frame=15419 fps=482 q=-0.0 size=N/A time=00:10:43.10 bitrate=N/A speed=20.1x    frame=15639 fps=481 q=-0.0 size=N/A time=00:10:52.27 bitrate=N/A speed=20.1x    frame=15861 fps=480 q=-0.0 size=N/A time=00:11:01.53 bitrate=N/A speed=  20x    frame=16106 fps=480 q=-0.0 size=N/A time=00:11:11.75 bitrate=N/A speed=  20x    frame=16374 fps=481 q=-0.0 size=N/A time=00:11:22.93 bitrate=N/A speed=20.1x    frame=16636 fps=481 q=-0.0 size=N/A time=00:11:33.85 bitrate=N/A speed=20.1x    frame=16914 fps=482 q=-0.0 size=N/A time=00:11:45.45 bitrate=N/A speed=20.1x    frame=17166 fps=482 q=-0.0 size=N/A time=00:11:55.96 bitrate=N/A speed=20.1x    frame=17419 fps=483 q=-0.0 size=N/A time=00:12:06.51 bitrate=N/A speed=20.1x    frame=17685 fps=483 q=-0.0 size=N/A time=00:12:17.61 bitrate=N/A speed=20.1x    frame=17926 fps=483 q=-0.0 size=N/A time=00:12:27.66 bitrate=N/A speed=20.1x    frame=18152 fps=482 q=-0.0 size=N/A time=00:12:37.08 bitrate=N/A speed=20.1x    frame=18409 fps=482 q=-0.0 size=N/A time=00:12:47.80 bitrate=N/A speed=20.1x    frame=18609 fps=481 q=-0.0 size=N/A time=00:12:56.15 bitrate=N/A speed=20.1x    frame=18847 fps=481 q=-0.0 size=N/A time=00:13:06.07 bitrate=N/A speed=20.1x    frame=19076 fps=480 q=-0.0 size=N/A time=00:13:15.62 bitrate=N/A speed=  20x    frame=19251 fps=479 q=-0.0 size=N/A time=00:13:22.92 bitrate=N/A speed=  20x    frame=19489 fps=478 q=-0.0 size=N/A time=00:13:32.85 bitrate=N/A speed=  20x    frame=19693 fps=477 q=-0.0 size=N/A time=00:13:41.36 bitrate=N/A speed=19.9x    frame=19911 fps=477 q=-0.0 size=N/A time=00:13:50.45 bitrate=N/A speed=19.9x    frame=20092 fps=475 q=-0.0 size=N/A time=00:13:58.00 bitrate=N/A speed=19.8x    frame=20295 fps=474 q=-0.0 size=N/A time=00:14:06.47 bitrate=N/A speed=19.8x    frame=20530 fps=474 q=-0.0 size=N/A time=00:14:16.27 bitrate=N/A speed=19.8x    frame=20743 fps=473 q=-0.0 size=N/A time=00:14:25.15 bitrate=N/A speed=19.7x    frame=20967 fps=473 q=-0.0 size=N/A time=00:14:34.49 bitrate=N/A speed=19.7x    frame=21176 fps=472 q=-0.0 size=N/A time=00:14:43.21 bitrate=N/A speed=19.7x    frame=21389 fps=471 q=-0.0 size=N/A time=00:14:52.09 bitrate=N/A speed=19.7x    frame=21619 fps=471 q=-0.0 size=N/A time=00:15:01.69 bitrate=N/A speed=19.6x    frame=21832 fps=470 q=-0.0 size=N/A time=00:15:10.57 bitrate=N/A speed=19.6x    frame=22054 fps=470 q=-0.0 size=N/A time=00:15:19.83 bitrate=N/A speed=19.6x    frame=22264 fps=469 q=-0.0 size=N/A time=00:15:28.59 bitrate=N/A speed=19.6x    frame=22515 fps=469 q=-0.0 size=N/A time=00:15:39.06 bitrate=N/A speed=19.6x    frame=22749 fps=469 q=-0.0 size=N/A time=00:15:48.82 bitrate=N/A speed=19.6x    frame=22990 fps=469 q=-0.0 size=N/A time=00:15:58.87 bitrate=N/A speed=19.6x    frame=23237 fps=469 q=-0.0 size=N/A time=00:16:09.17 bitrate=N/A speed=19.6x    frame=23476 fps=469 q=-0.0 size=N/A time=00:16:19.14 bitrate=N/A speed=19.6x    frame=23735 fps=470 q=-0.0 size=N/A time=00:16:29.94 bitrate=N/A speed=19.6x    frame=23975 fps=470 q=-0.0 size=N/A time=00:16:39.99 bitrate=N/A speed=19.6x    frame=24195 fps=469 q=-0.0 size=N/A time=00:16:49.13 bitrate=N/A speed=19.6x    frame=24439 fps=469 q=-0.0 size=N/A time=00:16:59.30 bitrate=N/A speed=19.6x    frame=24684 fps=469 q=-0.0 size=N/A time=00:17:09.52 bitrate=N/A speed=19.6x    frame=24941 fps=470 q=-0.0 size=N/A time=00:17:20.24 bitrate=N/A speed=19.6x    frame=25156 fps=469 q=-0.0 size=N/A time=00:17:29.21 bitrate=N/A speed=19.6x    frame=25367 fps=468 q=-0.0 size=N/A time=00:17:38.01 bitrate=N/A speed=19.5x    frame=25593 fps=468 q=-0.0 size=N/A time=00:17:47.44 bitrate=N/A speed=19.5x    frame=25809 fps=468 q=-0.0 size=N/A time=00:17:56.45 bitrate=N/A speed=19.5x    frame=26066 fps=468 q=-0.0 size=N/A time=00:18:07.16 bitrate=N/A speed=19.5x    frame=26340 fps=469 q=-0.0 size=N/A time=00:18:18.59 bitrate=N/A speed=19.5x    frame=26586 fps=469 q=-0.0 size=N/A time=00:18:28.85 bitrate=N/A speed=19.5x    frame=26819 fps=469 q=-0.0 size=N/A time=00:18:38.57 bitrate=N/A speed=19.5x    frame=27036 fps=468 q=-0.0 size=N/A time=00:18:47.62 bitrate=N/A speed=19.5x    frame=27265 fps=468 q=-0.0 size=N/A time=00:18:57.17 bitrate=N/A speed=19.5x    frame=27431 fps=467 q=-0.0 size=N/A time=00:19:04.10 bitrate=N/A speed=19.5x    frame=27648 fps=466 q=-0.0 size=N/A time=00:19:13.15 bitrate=N/A speed=19.4x    frame=27865 fps=466 q=-0.0 size=N/A time=00:19:22.20 bitrate=N/A speed=19.4x    frame=28075 fps=465 q=-0.0 size=N/A time=00:19:30.96 bitrate=N/A speed=19.4x    frame=28287 fps=465 q=-0.0 size=N/A time=00:19:39.80 bitrate=N/A speed=19.4x    frame=28513 fps=465 q=-0.0 size=N/A time=00:19:49.22 bitrate=N/A speed=19.4x    frame=28732 fps=464 q=-0.0 size=N/A time=00:19:58.36 bitrate=N/A speed=19.4x    frame=28949 fps=464 q=-0.0 size=N/A time=00:20:07.41 bitrate=N/A speed=19.4x    frame=29167 fps=464 q=-0.0 size=N/A time=00:20:16.50 bitrate=N/A speed=19.3x    frame=29381 fps=463 q=-0.0 size=N/A time=00:20:25.43 bitrate=N/A speed=19.3x    frame=29619 fps=463 q=-0.0 size=N/A time=00:20:35.35 bitrate=N/A speed=19.3x    frame=29835 fps=463 q=-0.0 size=N/A time=00:20:44.36 bitrate=N/A speed=19.3x    frame=30107 fps=463 q=-0.0 size=N/A time=00:20:55.71 bitrate=N/A speed=19.3x    frame=30349 fps=463 q=-0.0 size=N/A time=00:21:05.80 bitrate=N/A speed=19.3x    frame=30600 fps=464 q=-0.0 size=N/A time=00:21:16.31 bitrate=N/A speed=19.3x    frame=30868 fps=464 q=-0.0 size=N/A time=00:21:27.45 bitrate=N/A speed=19.4x    frame=31136 fps=464 q=-0.0 size=N/A time=00:21:38.63 bitrate=N/A speed=19.4x    frame=31373 fps=464 q=-0.0 size=N/A time=00:21:48.51 bitrate=N/A speed=19.4x    frame=31621 fps=465 q=-0.0 size=N/A time=00:21:58.85 bitrate=N/A speed=19.4x    frame=31807 fps=464 q=-0.0 size=N/A time=00:22:06.61 bitrate=N/A speed=19.3x    frame=32063 fps=464 q=-0.0 size=N/A time=00:22:17.29 bitrate=N/A speed=19.3x    frame=32316 fps=464 q=-0.0 size=N/A time=00:22:27.84 bitrate=N/A speed=19.4x    frame=32527 fps=464 q=-0.0 size=N/A time=00:22:36.64 bitrate=N/A speed=19.3x    frame=32776 fps=464 q=-0.0 size=N/A time=00:22:47.03 bitrate=N/A speed=19.3x    frame=33036 fps=464 q=-0.0 size=N/A time=00:22:57.87 bitrate=N/A speed=19.4x    frame=33271 fps=464 q=-0.0 size=N/A time=00:23:07.67 bitrate=N/A speed=19.4x    frame=33481 fps=464 q=-0.0 size=N/A time=00:23:16.43 bitrate=N/A speed=19.3x    frame=33722 fps=464 q=-0.0 size=N/A time=00:23:26.48 bitrate=N/A speed=19.3x    frame=33960 fps=464 q=-0.0 size=N/A time=00:23:36.41 bitrate=N/A speed=19.3x    [Parsed_psnr_10 @ 00000178edc0bac0] PSNR y:48.481817 u:50.324776 v:50.496299 average:49.034485 min:43.114141 max:inf
[out#0/null @ 00000178edd65e00] video:14697KiB audio:267500KiB subtitle:0KiB other streams:0KiB global headers:0KiB muxing overhead: unknown
frame=34203 fps=464 q=-0.0 Lsize=N/A time=00:23:46.55 bitrate=N/A speed=19.4x    
